<svg xmlns="http://www.w3.org/2000/svg" xmlns:xlink="http://www.w3.org/1999/xlink" width="292" zoomAndPan="magnify" viewBox="0 0 218.87999 151.500001" height="202" preserveAspectRatio="xMidYMid meet" version="1.0"><defs><g/><clipPath id="53c2662a3d"><path d="M 0.300781 140 L 218.460938 140 L 218.460938 151 L 0.300781 151 Z M 0.300781 140 " clip-rule="nonzero"/></clipPath><clipPath id="872b6b5c60"><path d="M 0.300781 0 L 218.460938 0 L 218.460938 10 L 0.300781 10 Z M 0.300781 0 " clip-rule="nonzero"/></clipPath><clipPath id="2314fe1047"><path d="M 0.300781 0 L 61 0 L 61 151 L 0.300781 151 Z M 0.300781 0 " clip-rule="nonzero"/></clipPath><clipPath id="6ef935fcc3"><rect x="0" width="181" y="0" height="96"/></clipPath><clipPath id="e8580cd32f"><rect x="0" width="144" y="0" height="26"/></clipPath><clipPath id="c5ab293e90"><path d="M 157 0 L 218.460938 0 L 218.460938 151 L 157 151 Z M 157 0 " clip-rule="nonzero"/></clipPath></defs><g clip-path="url(#53c2662a3d)"><path stroke-linecap="butt" transform="matrix(0.747533, 0, 0, 0.747533, 0.553564, 140.994004)" fill="none" stroke-linejoin="miter" d="M 0.0015027 6.49812 L 291.528191 6.49812 " stroke="#4f46e5" stroke-width="13" stroke-opacity="1" stroke-miterlimit="4"/></g><g clip-path="url(#872b6b5c60)"><path stroke-linecap="butt" transform="matrix(0.747533, 0, 0, 0.747533, 0.553564, 0.156623)" fill="none" stroke-linejoin="miter" d="M 0.00150266 6.500051 L 290.326321 6.500051 " stroke="#0d1950" stroke-width="13" stroke-opacity="1" stroke-miterlimit="4"/></g><g clip-path="url(#2314fe1047)"><path stroke-linecap="butt" transform="matrix(-0.00359455, -0.747524, 0.747524, -0.00359455, 1.073958, 130.309774)" fill="none" stroke-linejoin="miter" d="M 0.00167175 6.500982 L 172.822161 6.501139 " stroke="#0d1950" stroke-width="13" stroke-opacity="1" stroke-miterlimit="4"/></g><g transform="matrix(1, 0, 0, 1, 19, 26)"><g clip-path="url(#6ef935fcc3)"><g fill="#4f46e5" fill-opacity="1"><g transform="translate(0.682757, 71.566943)"><g><path d="M 7.046875 0 L 7.046875 -54.765625 L 16.890625 -54.765625 L 16.890625 0 Z M 7.046875 0 "/></g></g><g transform="translate(24.634565, 71.566943)"><g><path d="M 19.375 0.78125 C 16.84375 0.78125 14.664062 0.316406 12.84375 -0.609375 C 11.019531 -1.546875 9.625 -2.875 8.65625 -4.59375 C 7.6875 -6.3125 7.203125 -8.347656 7.203125 -10.703125 L 7.203125 -30.8125 L 0.96875 -30.8125 L 0.96875 -38.71875 L 7.359375 -38.71875 L 7.359375 -48.328125 L 16.59375 -55.078125 L 16.59375 -38.71875 L 26.359375 -38.71875 L 26.359375 -30.8125 L 16.59375 -30.8125 L 16.59375 -12.359375 C 16.59375 -10.503906 17.007812 -9.238281 17.84375 -8.5625 C 18.6875 -7.894531 19.726562 -7.5625 20.96875 -7.5625 C 21.945312 -7.5625 22.925781 -7.710938 23.90625 -8.015625 C 24.894531 -8.328125 25.710938 -8.640625 26.359375 -8.953125 L 26.359375 -0.390625 C 25.628906 -0.128906 24.617188 0.128906 23.328125 0.390625 C 22.035156 0.648438 20.71875 0.78125 19.375 0.78125 Z M 19.375 0.78125 "/></g></g><g transform="translate(53.857321, 71.566943)"><g><path d="M 21.75 0.78125 C 18.414062 0.78125 15.519531 0.238281 13.0625 -0.84375 C 10.601562 -1.9375 8.5625 -3.425781 6.9375 -5.3125 C 5.3125 -7.195312 4.101562 -9.332031 3.3125 -11.71875 C 2.519531 -14.113281 2.125 -16.613281 2.125 -19.21875 C 2.125 -21.75 2.5 -24.21875 3.25 -26.625 C 4 -29.03125 5.148438 -31.207031 6.703125 -33.15625 C 8.253906 -35.101562 10.222656 -36.648438 12.609375 -37.796875 C 15.003906 -38.953125 17.84375 -39.53125 21.125 -39.53125 C 23.832031 -39.53125 26.1875 -39.132812 28.1875 -38.34375 C 30.195312 -37.5625 31.898438 -36.5 33.296875 -35.15625 C 34.691406 -33.8125 35.8125 -32.289062 36.65625 -30.59375 C 37.507812 -28.90625 38.125 -27.148438 38.5 -25.328125 C 38.875 -23.503906 39.0625 -21.726562 39.0625 -20 C 39.0625 -19.195312 39.03125 -18.445312 38.96875 -17.75 C 38.90625 -17.050781 38.820312 -16.5625 38.71875 -16.28125 L 12.125 -16.28125 C 12.414062 -14.601562 12.925781 -13.125 13.65625 -11.84375 C 14.394531 -10.5625 15.4375 -9.566406 16.78125 -8.859375 C 18.125 -8.148438 19.804688 -7.796875 21.828125 -7.796875 C 23.578125 -7.796875 25.226562 -8.101562 26.78125 -8.71875 C 28.332031 -9.34375 29.78125 -10.40625 31.125 -11.90625 L 37.640625 -6.203125 C 35.515625 -3.847656 33.144531 -2.09375 30.53125 -0.9375 C 27.925781 0.207031 25 0.78125 21.75 0.78125 Z M 12.125 -23.09375 L 29.765625 -23.09375 C 29.453125 -25.863281 28.535156 -27.972656 27.015625 -29.421875 C 25.492188 -30.867188 23.503906 -31.59375 21.046875 -31.59375 C 19.179688 -31.59375 17.648438 -31.222656 16.453125 -30.484375 C 15.253906 -29.742188 14.3125 -28.734375 13.625 -27.453125 C 12.9375 -26.179688 12.4375 -24.726562 12.125 -23.09375 Z M 12.125 -23.09375 "/></g></g><g transform="translate(95.211008, 71.566943)"><g><path d="M 20.96875 0.78125 C 17.8125 0.78125 15.054688 0.222656 12.703125 -0.890625 C 10.359375 -2.003906 8.410156 -3.507812 6.859375 -5.40625 C 5.304688 -7.300781 4.140625 -9.453125 3.359375 -11.859375 C 2.585938 -14.265625 2.203125 -16.742188 2.203125 -19.296875 C 2.203125 -21.828125 2.582031 -24.300781 3.34375 -26.71875 C 4.113281 -29.132812 5.265625 -31.304688 6.796875 -33.234375 C 8.335938 -35.160156 10.28125 -36.691406 12.625 -37.828125 C 14.976562 -38.960938 17.734375 -39.53125 20.890625 -39.53125 C 24.742188 -39.53125 28.128906 -38.585938 31.046875 -36.703125 C 33.960938 -34.816406 36.160156 -31.945312 37.640625 -28.09375 L 28.640625 -24.609375 C 28.148438 -26.472656 27.21875 -28 25.84375 -29.1875 C 24.476562 -30.375 22.828125 -30.96875 20.890625 -30.96875 C 19.265625 -30.96875 17.875 -30.632812 16.71875 -29.96875 C 15.570312 -29.3125 14.632812 -28.421875 13.90625 -27.296875 C 13.1875 -26.179688 12.660156 -24.929688 12.328125 -23.546875 C 11.992188 -22.160156 11.828125 -20.742188 11.828125 -19.296875 C 11.828125 -17.828125 11.992188 -16.40625 12.328125 -15.03125 C 12.660156 -13.664062 13.179688 -12.429688 13.890625 -11.328125 C 14.597656 -10.234375 15.523438 -9.367188 16.671875 -8.734375 C 17.828125 -8.109375 19.234375 -7.796875 20.890625 -7.796875 C 22.804688 -7.796875 24.453125 -8.367188 25.828125 -9.515625 C 27.210938 -10.660156 28.148438 -12.140625 28.640625 -13.953125 L 37.25 -10.703125 C 36.394531 -8.296875 35.175781 -6.234375 33.59375 -4.515625 C 32.019531 -2.796875 30.160156 -1.484375 28.015625 -0.578125 C 25.878906 0.328125 23.53125 0.78125 20.96875 0.78125 Z M 20.96875 0.78125 "/></g></g><g transform="translate(134.123008, 71.566943)"><g><path d="M 5.703125 0 L 5.703125 -54.765625 L 15.3125 -54.765625 L 15.3125 -34.21875 C 16.863281 -36.132812 18.644531 -37.5 20.65625 -38.3125 C 22.675781 -39.125 24.628906 -39.53125 26.515625 -39.53125 C 29.046875 -39.53125 31.210938 -39.070312 33.015625 -38.15625 C 34.828125 -37.238281 36.304688 -36 37.453125 -34.4375 C 38.609375 -32.875 39.457031 -31.125 40 -29.1875 C 40.539062 -27.25 40.8125 -25.269531 40.8125 -23.25 L 40.8125 0 L 31.203125 0 L 31.203125 -22.046875 C 31.203125 -23.648438 31.015625 -25.125 30.640625 -26.46875 C 30.265625 -27.8125 29.578125 -28.894531 28.578125 -29.71875 C 27.585938 -30.550781 26.132812 -30.96875 24.21875 -30.96875 C 22.207031 -30.96875 20.539062 -30.46875 19.21875 -29.46875 C 17.90625 -28.476562 16.925781 -27.125 16.28125 -25.40625 C 15.632812 -23.6875 15.3125 -21.753906 15.3125 -19.609375 L 15.3125 0 Z M 5.703125 0 "/></g></g></g></g></g><g transform="matrix(1, 0, 0, 1, 37, 108)"><g clip-path="url(#e8580cd32f)"><g fill="#0d1950" fill-opacity="1"><g transform="translate(1.253722, 21.713517)"><g><path d="M 9.734375 -12.6875 C 11.054688 -12.6875 12.097656 -12.550781 12.859375 -12.28125 C 13.617188 -12.007812 14.15625 -11.601562 14.46875 -11.0625 C 14.789062 -10.53125 14.953125 -9.875 14.953125 -9.09375 L 14.953125 -8.484375 C 14.953125 -7.597656 14.789062 -6.867188 14.46875 -6.296875 C 14.15625 -5.722656 13.617188 -5.296875 12.859375 -5.015625 C 12.109375 -4.734375 11.066406 -4.59375 9.734375 -4.59375 L 3.71875 -4.59375 L 3.71875 0 L 2.625 0 L 2.625 -12.6875 Z M 13.8125 -8.484375 L 13.8125 -9.09375 C 13.8125 -10.007812 13.488281 -10.660156 12.84375 -11.046875 C 12.195312 -11.441406 11.160156 -11.640625 9.734375 -11.640625 L 3.71875 -11.640625 L 3.71875 -5.65625 L 9.734375 -5.65625 C 11.203125 -5.65625 12.25 -5.863281 12.875 -6.28125 C 13.5 -6.707031 13.8125 -7.441406 13.8125 -8.484375 Z M 13.8125 -8.484375 "/></g></g></g><g fill="#0d1950" fill-opacity="1"><g transform="translate(17.905328, 21.713517)"><g><path d="M 15.421875 -1.265625 C 15.421875 -1.046875 15.429688 -0.828125 15.453125 -0.609375 C 15.472656 -0.398438 15.5 -0.195312 15.53125 0 L 14.328125 0 C 14.296875 -0.195312 14.269531 -0.394531 14.25 -0.59375 C 14.238281 -0.800781 14.234375 -1 14.234375 -1.1875 L 14.234375 -3.296875 C 14.234375 -4.046875 13.976562 -4.585938 13.46875 -4.921875 C 12.96875 -5.265625 12.085938 -5.4375 10.828125 -5.4375 L 3.765625 -5.4375 L 3.765625 0 L 2.625 0 L 2.625 -12.6875 L 10.828125 -12.6875 C 12.453125 -12.6875 13.625 -12.40625 14.34375 -11.84375 C 15.0625 -11.28125 15.421875 -10.476562 15.421875 -9.4375 L 15.421875 -8.921875 C 15.421875 -8.191406 15.28125 -7.585938 15 -7.109375 C 14.726562 -6.628906 14.289062 -6.253906 13.6875 -5.984375 C 14.289062 -5.742188 14.726562 -5.398438 15 -4.953125 C 15.28125 -4.515625 15.421875 -3.960938 15.421875 -3.296875 Z M 3.765625 -6.53125 L 10.828125 -6.53125 C 12.085938 -6.53125 12.976562 -6.710938 13.5 -7.078125 C 14.019531 -7.453125 14.28125 -8.066406 14.28125 -8.921875 L 14.28125 -9.4375 C 14.28125 -10.1875 14.019531 -10.738281 13.5 -11.09375 C 12.976562 -11.457031 12.085938 -11.640625 10.828125 -11.640625 L 3.765625 -11.640625 Z M 3.765625 -6.53125 "/></g></g></g><g fill="#0d1950" fill-opacity="1"><g transform="translate(35.762953, 21.713517)"><g><path d="M 9.75 0.21875 C 6.957031 0.21875 4.914062 -0.320312 3.625 -1.40625 C 2.332031 -2.488281 1.6875 -3.976562 1.6875 -5.875 L 1.6875 -6.8125 C 1.6875 -8.71875 2.332031 -10.207031 3.625 -11.28125 C 4.914062 -12.363281 6.957031 -12.90625 9.75 -12.90625 C 12.539062 -12.90625 14.582031 -12.378906 15.875 -11.328125 C 17.164062 -10.273438 17.8125 -8.796875 17.8125 -6.890625 L 17.8125 -5.96875 C 17.8125 -4.0625 17.164062 -2.550781 15.875 -1.4375 C 14.582031 -0.332031 12.539062 0.21875 9.75 0.21875 Z M 9.75 -0.84375 C 12.132812 -0.84375 13.882812 -1.269531 15 -2.125 C 16.113281 -2.976562 16.671875 -4.226562 16.671875 -5.875 L 16.671875 -6.8125 C 16.671875 -8.457031 16.113281 -9.707031 15 -10.5625 C 13.882812 -11.414062 12.132812 -11.84375 9.75 -11.84375 C 7.363281 -11.84375 5.613281 -11.414062 4.5 -10.5625 C 3.382812 -9.707031 2.828125 -8.457031 2.828125 -6.8125 L 2.828125 -5.875 C 2.828125 -4.226562 3.382812 -2.976562 4.5 -2.125 C 5.613281 -1.269531 7.363281 -0.84375 9.75 -0.84375 Z M 9.75 -0.84375 "/></g></g></g><g fill="#0d1950" fill-opacity="1"><g transform="translate(55.694065, 21.713517)"><g><path d="M 17.015625 -12.6875 L 17.015625 -5.96875 C 17.015625 -4.0625 16.390625 -2.550781 15.140625 -1.4375 C 13.898438 -0.332031 11.9375 0.21875 9.25 0.21875 C 6.664062 0.21875 4.757812 -0.234375 3.53125 -1.140625 C 2.300781 -2.046875 1.6875 -3.34375 1.6875 -5.03125 L 1.6875 -5.75 L 2.796875 -5.75 L 2.796875 -5.03125 C 2.796875 -3.59375 3.328125 -2.535156 4.390625 -1.859375 C 5.453125 -1.179688 7.070312 -0.84375 9.25 -0.84375 C 11.519531 -0.84375 13.195312 -1.269531 14.28125 -2.125 C 15.363281 -2.976562 15.90625 -4.226562 15.90625 -5.875 L 15.90625 -11.71875 L 1.984375 -11.71875 L 1.984375 -12.6875 Z M 17.015625 -12.6875 "/></g></g></g><g fill="#0d1950" fill-opacity="1"><g transform="translate(74.969276, 21.713517)"><g><path d="M 14.9375 -11.71875 L 3.71875 -11.71875 L 3.71875 -6.671875 L 14.15625 -6.671875 L 14.15625 -5.6875 L 3.71875 -5.6875 L 3.71875 -0.96875 L 14.9375 -0.96875 L 14.9375 0 L 2.625 0 L 2.625 -12.6875 L 14.9375 -12.6875 Z M 14.9375 -11.71875 "/></g></g></g><g fill="#0d1950" fill-opacity="1"><g transform="translate(91.620881, 21.713517)"><g><path d="M 9.75 0.21875 C 6.957031 0.21875 4.914062 -0.320312 3.625 -1.40625 C 2.332031 -2.488281 1.6875 -3.976562 1.6875 -5.875 L 1.6875 -6.8125 C 1.6875 -8.71875 2.332031 -10.207031 3.625 -11.28125 C 4.914062 -12.363281 6.957031 -12.90625 9.75 -12.90625 C 12.207031 -12.90625 14.128906 -12.484375 15.515625 -11.640625 C 16.910156 -10.804688 17.65625 -9.632812 17.75 -8.125 L 16.5625 -8.125 C 16.46875 -9.332031 15.820312 -10.253906 14.625 -10.890625 C 13.425781 -11.523438 11.800781 -11.84375 9.75 -11.84375 C 7.363281 -11.84375 5.613281 -11.414062 4.5 -10.5625 C 3.382812 -9.707031 2.828125 -8.457031 2.828125 -6.8125 L 2.828125 -5.875 C 2.828125 -4.226562 3.382812 -2.976562 4.5 -2.125 C 5.613281 -1.269531 7.363281 -0.84375 9.75 -0.84375 C 11.84375 -0.84375 13.453125 -1.171875 14.578125 -1.828125 C 15.703125 -2.492188 16.359375 -3.472656 16.546875 -4.765625 L 17.734375 -4.765625 C 17.546875 -3.210938 16.789062 -1.992188 15.46875 -1.109375 C 14.15625 -0.222656 12.25 0.21875 9.75 0.21875 Z M 9.75 0.21875 "/></g></g></g><g fill="#0d1950" fill-opacity="1"><g transform="translate(111.509687, 21.713517)"><g><path d="M 13.390625 -12.6875 L 13.390625 -11.671875 L 7.21875 -11.671875 L 7.21875 0 L 6.109375 0 L 6.109375 -11.671875 L -0.0625 -11.671875 L -0.0625 -12.6875 Z M 13.390625 -12.6875 "/></g></g></g><g fill="#0d1950" fill-opacity="1"><g transform="translate(125.241476, 21.713517)"><g><path d="M 14.828125 -8.5 C 14.828125 -9.71875 14.347656 -10.578125 13.390625 -11.078125 C 12.429688 -11.578125 10.976562 -11.828125 9.03125 -11.828125 C 6.988281 -11.828125 5.441406 -11.640625 4.390625 -11.265625 C 3.335938 -10.890625 2.8125 -10.347656 2.8125 -9.640625 L 2.8125 -9.265625 C 2.8125 -8.867188 2.972656 -8.523438 3.296875 -8.234375 C 3.617188 -7.953125 4.203125 -7.710938 5.046875 -7.515625 C 5.898438 -7.316406 7.113281 -7.128906 8.6875 -6.953125 C 10.46875 -6.773438 11.875 -6.5625 12.90625 -6.3125 C 13.945312 -6.0625 14.6875 -5.710938 15.125 -5.265625 C 15.570312 -4.816406 15.796875 -4.203125 15.796875 -3.421875 L 15.796875 -2.96875 C 15.796875 -2.382812 15.5625 -1.847656 15.09375 -1.359375 C 14.632812 -0.878906 13.878906 -0.492188 12.828125 -0.203125 C 11.773438 0.078125 10.363281 0.21875 8.59375 0.21875 C 6.101562 0.21875 4.328125 -0.15625 3.265625 -0.90625 C 2.210938 -1.664062 1.6875 -2.832031 1.6875 -4.40625 L 2.796875 -4.40625 C 2.796875 -3.070312 3.269531 -2.144531 4.21875 -1.625 C 5.175781 -1.101562 6.632812 -0.84375 8.59375 -0.84375 C 10.5625 -0.84375 12.070312 -1.035156 13.125 -1.421875 C 14.175781 -1.816406 14.703125 -2.375 14.703125 -3.09375 L 14.703125 -3.46875 C 14.703125 -3.8125 14.613281 -4.109375 14.4375 -4.359375 C 14.257812 -4.609375 13.945312 -4.828125 13.5 -5.015625 C 13.0625 -5.210938 12.441406 -5.382812 11.640625 -5.53125 C 10.847656 -5.675781 9.820312 -5.8125 8.5625 -5.9375 C 6.875 -6.125 5.53125 -6.335938 4.53125 -6.578125 C 3.53125 -6.816406 2.8125 -7.148438 2.375 -7.578125 C 1.9375 -8.015625 1.71875 -8.59375 1.71875 -9.3125 L 1.71875 -9.78125 C 1.71875 -10.363281 1.953125 -10.890625 2.421875 -11.359375 C 2.890625 -11.828125 3.660156 -12.195312 4.734375 -12.46875 C 5.804688 -12.75 7.238281 -12.890625 9.03125 -12.890625 C 11.300781 -12.890625 13.019531 -12.550781 14.1875 -11.875 C 15.351562 -11.195312 15.9375 -10.070312 15.9375 -8.5 Z M 14.828125 -8.5 "/></g></g></g></g></g><g clip-path="url(#c5ab293e90)"><path stroke-linecap="butt" transform="matrix(-0.00518839, -0.747515, 0.747515, -0.00518839, 208.85354, 130.34245)" fill="none" stroke-linejoin="miter" d="M 0.000189882 6.498063 L 172.854175 6.501143 " stroke="#0d1950" stroke-width="13" stroke-opacity="1" stroke-miterlimit="4"/></g></svg>